PathFileType	4	(X/Y/Z)	./resultDataOpenSim/trcMotMarkerGrf/sub10/qtm-12-06.trc
DataRate	CameraRate	NumFrames	NumMarkers	Units	OrigDataRate	OrigDataStartFrame	OrigNumFrames
250.000000	250.000000	10	24	m	250.000000	61	483
Frame#	Time	L.Toe.Tip			R.Toe.Tip			L.Ankle.Lat			R.Ankle.Lat			L.Ankle.Med			R.Ankle.Med			L.Heel			R.Heel			L.Knee.Lat			R.Knee.Lat			L.Knee.Med			R.Knee.Med			L.Thigh.Upper			R.Thigh.Upper			L.ASIS			R.ASIS			V.Sacral			L.Acromium			R.Acromium			C7			L.Elbow			R.Elbow			L.Wrist.Lat			R.Wrist.Lat
		X1	Y1	Z1	X2	Y2	Z2	X3	Y3	Z3	X4	Y4	Z4	X5	Y5	Z5	X6	Y6	Z6	X7	Y7	Z7	X8	Y8	Z8	X9	Y9	Z9	X10	Y10	Z10	X11	Y11	Z11	X12	Y12	Z12	X13	Y13	Z13	X14	Y14	Z14	X15	Y15	Z15	X16	Y16	Z16	X17	Y17	Z17	X18	Y18	Z18	X19	Y19	Z19	X20	Y20	Z20	X21	Y21	Z21	X22	Y22	Z22	X23	Y23	Z23	X24	Y24	Z24

61	0.24	-1.4343311	0.061322621	-0.10202213	-0.77750553	0.039874362	0.040443429	-1.4176535	0.19274976	-0.15589404	-0.91647336	0.052704406	0.077583647	-1.3903704	0.19196515	-0.075327348	-0.90243912	0.080320786	-0.0055830499	-1.4537176	0.24860949	-0.11463738	-0.96951923	0.028437307	0.02961408	-1.1151138	0.41435434	-0.17877398	-0.90365902	0.45318769	0.11168052	-1.0946072	0.37731407	-0.063886691	-0.90770892	0.45925843	-0.016174752	-1.056636	0.79368371	-0.2097162	-1.0056483	0.86100188	0.16925024	-0.98665871	0.90534389	-0.15564337	-0.95070051	0.94159956	0.080130531	-1.1682124	0.94019125	-0.012591121	-1.0175298	1.3956171	-0.1780024	-1.060078	1.3840049	0.1470972	-1.1246669	1.422909	-0.026711319	-1.0706406	1.0496544	-0.21826971	-1.1985511	1.0697093	0.16632668	-0.8879645	0.88471168	-0.20477115	-1.1576675	0.83809258	0.22501488
62	0.244	-1.4238513	0.063364981	-0.10273204	-0.77739091	0.039797397	0.040323438	-1.4070226	0.19498306	-0.15534374	-0.916519	0.052732138	0.077557974	-1.3797335	0.1936778	-0.074795654	-0.90221272	0.080318802	-0.0056907593	-1.4428978	0.25081429	-0.11372179	-0.96956135	0.028428093	0.029642442	-1.103855	0.41444259	-0.17901723	-0.90128568	0.45345464	0.11183901	-1.082199	0.37823514	-0.064237983	-0.90515548	0.45943077	-0.016118252	-1.0504091	0.79442476	-0.20942933	-1.0002685	0.86156224	0.16942496	-0.98070911	0.90642629	-0.15546591	-0.94480918	0.94216909	0.08046163	-1.1626906	0.94079965	-0.012349578	-1.0117805	1.3964859	-0.17785623	-1.05382	1.3848234	0.1474045	-1.1189275	1.4239063	-0.026268879	-1.0655072	1.0509539	-0.21777409	-1.1914695	1.0699785	0.16716856	-0.88485778	0.88383586	-0.20532769	-1.1484771	0.83851468	0.22526832
63	0.248	-1.4123187	0.065169434	-0.1033507	-0.77726408	0.039724574	0.04017571	-1.3963229	0.19707434	-0.15468742	-0.91655726	0.052761138	0.077525136	-1.3688361	0.19537926	-0.074212926	-0.90194505	0.080311851	-0.005818725	-1.4324283	0.25271043	-0.11268721	-0.96960918	0.028421344	0.029668493	-1.0923941	0.41469108	-0.17924544	-0.89879824	0.45365496	0.11192695	-1.0698371	0.37931482	-0.064572863	-0.90264099	0.45962867	-0.016077174	-1.0442654	0.79519408	-0.20915931	-0.99469901	0.86209234	0.16956559	-0.97491447	0.90754745	-0.15542381	-0.93893234	0.94270106	0.080776459	-1.1572289	0.94141217	-0.012166097	-1.0060515	1.3973482	-0.17774335	-1.0475445	1.3856531	0.14767516	-1.1131889	1.4249144	-0.025809525	-1.0604178	1.0522407	-0.21741944	-1.1844768	1.0702848	0.16801604	-0.8817658	0.88298599	-0.20593152	-1.1393814	0.83890859	0.2253892
64	0.252	-1.3999076	0.066684725	-0.10383873	-0.77712967	0.039659521	0.040004399	-1.3854312	0.19896733	-0.15394584	-0.91658802	0.052793524	0.077487566	-1.3575868	0.19704605	-0.073595543	-0.90163679	0.080298145	-0.0059661459	-1.4221062	0.25427843	-0.11159434	-0.96965891	0.028420842	0.029687696	-1.0807568	0.41509691	-0.17942653	-0.89621089	0.45377423	0.11196153	-1.0579775	0.38039952	-0.064721526	-0.90018503	0.45982522	-0.016069003	-1.0382166	0.79599459	-0.20888579	-0.98900453	0.86258425	0.16967844	-0.96925436	0.90870574	-0.15549817	-0.93300612	0.94321844	0.081108181	-1.1518016	0.94204241	-0.012030949	-1.0003624	1.3982259	-0.17764375	-1.041265	1.3865186	0.14790716	-1.1074545	1.4259258	-0.02533397	-1.0553535	1.0535181	-0.21709622	-1.1776015	1.0706309	0.16885309	-0.87870147	0.88216882	-0.2065684	-1.1304158	0.83927355	0.22539548
65	0.256	-1.386759	0.067924942	-0.10420498	-0.7769931	0.039603642	0.039821802	-1.3742806	0.20064181	-0.153135	-0.91661027	0.052830458	0.077450028	-1.3460062	0.19862771	-0.072941375	-0.90131209	0.080278662	-0.0061295881	-1.4117391	0.2554822	-0.1104159	-0.96970575	0.028427052	0.029696399	-1.0690731	0.41565697	-0.1795198	-0.8936303	0.45382589	0.11198244	-1.0466609	0.38144669	-0.064663799	-0.89775441	0.4599997	-0.016116232	-1.032263	0.79683028	-0.20861168	-0.98333811	0.86302277	0.16973663	-0.96369308	0.90989161	-0.15566003	-0.92697268	0.94375218	0.081491558	-1.1463867	0.94269949	-0.01192655	-0.99472106	1.399126	-0.17754732	-1.0349745	1.3874232	0.1481038	-1.1017356	1.4269314	-0.024862002	-1.050313	1.0547872	-0.21676794	-1.1707584	1.0709725	0.16963636	-0.87566737	0.88139294	-0.20723194	-1.1215003	0.83963411	0.22535484
66	0.26	-1.372988	0.068927906	-0.10448907	-0.77686178	0.039556142	0.039647071	-1.3628866	0.20210497	-0.15227326	-0.91662139	0.052872909	0.077414821	-1.3342114	0.20006759	-0.072235185	-0.90102043	0.08025313	-0.0063018004	-1.4012555	0.25630206	-0.10911213	-0.96974534	0.028437764	0.029694332	-1.0574235	0.41638645	-0.17954454	-0.89116483	0.45382095	0.11201229	-1.0355041	0.38251283	-0.064536741	-0.89533798	0.46014552	-0.016201808	-1.0264054	0.79770369	-0.20835455	-0.97784298	0.86339881	0.16971403	-0.95821855	0.91108849	-0.15588705	-0.92087897	0.94431797	0.081934366	-1.1409791	0.94337796	-0.011834764	-0.98911653	1.4000382	-0.17745095	-1.0286846	1.3883517	0.1482823	-1.0960468	1.427925	-0.024418302	-1.0453094	1.0560496	-0.21644639	-1.1637553	1.0712365	0.17028062	-0.87267139	0.88066657	-0.20792258	-1.1125289	0.84001545	0.22531877
67	0.264	-1.3587024	0.069720505	-0.10472488	-0.77674491	0.039515819	0.039497762	-1.3513032	0.20335809	-0.1513722	-0.91661875	0.052921131	0.077380349	-1.3223228	0.20132711	-0.071474303	-0.90080971	0.08021968	-0.0064716428	-1.390704	0.25675678	-0.10773245	-0.96977562	0.028451532	0.029684056	-1.0457788	0.41730416	-0.17956987	-0.88887775	0.45376281	0.11204695	-1.0241764	0.38364587	-0.064444687	-0.89297256	0.46026422	-0.016275545	-1.0206475	0.79861901	-0.20814077	-0.97254512	0.86372431	0.16962675	-0.95282394	0.9122837	-0.15615854	-0.91489545	0.94490519	0.08240303	-1.1355913	0.94406174	-0.011734652	-0.98353988	1.4009484	-0.17735428	-1.0224401	1.3892903	0.14846546	-1.0903962	1.4289072	-0.024012273	-1.040358	1.0573155	-0.21615306	-1.1563889	1.0713603	0.17069796	-0.86972521	0.87999695	-0.20863266	-1.1034038	0.84043465	0.22530746
68	0.268	-1.3440023	0.070314249	-0.10493298	-0.77665109	0.039483381	0.039382048	-1.3395646	0.20438379	-0.15042955	-0.91660081	0.052970738	0.077343988	-1.3102842	0.202404	-0.070693448	-0.90067906	0.080182246	-0.0066253673	-1.3801456	0.25687672	-0.10636168	-0.96979684	0.028468838	0.029668397	-1.0341092	0.41840048	-0.1796362	-0.88678819	0.45365019	0.11207769	-1.0125865	0.38486833	-0.064398836	-0.89069623	0.46035265	-0.01630329	-1.0149865	0.79957899	-0.20799945	-0.96736565	0.8640324	0.16952902	-0.94748027	0.91347751	-0.15645271	-0.90919113	0.94549507	0.082852632	-1.1302391	0.94473851	-0.011598744	-0.97799953	1.4018583	-0.17725586	-1.0162691	1.3902464	0.14866018	-1.0847788	1.4298825	-0.023633621	-1.0354655	1.0585981	-0.21589498	-1.1486203	1.0713439	0.17091237	-0.86683919	0.87938975	-0.20934642	-1.0940836	0.84089979	0.22532806
69	0.272	-1.3289611	0.070723355	-0.10512269	-0.77658739	0.039461486	0.039299397	-1.3276793	0.20516462	-0.1494351	-0.91657116	0.053015225	0.07730505	-1.2978241	0.20332153	-0.069944628	-0.90058418	0.080151252	-0.0067498744	-1.3695801	0.25667046	-0.10502038	-0.9698103	0.028490527	0.029648823	-1.0224508	0.41963366	-0.17972622	-0.88489451	0.45348216	0.11211644	-1.0008017	0.38619438	-0.064378574	-0.88854428	0.46039801	-0.01628256	-1.0094032	0.80059138	-0.2079399	-0.96222171	0.86435674	0.16947198	-0.94213944	0.91467965	-0.15675557	-0.90379262	0.94608659	0.083273483	-1.1249251	0.94540982	-0.011399498	-0.97251276	1.402785	-0.17715318	-1.0101541	1.3912459	0.14885591	-1.0791823	1.4308534	-0.02326797	-1.0306314	1.059895	-0.21566637	-1.1406468	1.071266	0.17111045	-0.86402741	0.87884885	-0.21005626	-1.0845977	0.84141373	0.22538628
70	0.276	-1.3136157	0.070971091	-0.10529103	-0.77656067	0.039452779	0.039247394	-1.3156498	0.20570119	-0.14839333	-0.91654141	0.053053571	0.07726517	-1.284742	0.20408567	-0.069253252	-0.9005065	0.080131425	-0.0068387852	-1.358963	0.25612398	-0.1036634	-0.96981829	0.028516215	0.029626999	-1.0108597	0.42095677	-0.17981231	-0.8831631	0.45327906	0.11219464	-0.98896856	0.38761813	-0.06437171	-0.88656899	0.46038447	-0.016225793	-1.0038605	0.80167818	-0.20792508	-0.9570981	0.86471076	0.16947461	-0.93675287	0.91589988	-0.15705611	-0.89857653	0.94669774	0.083695747	-1.1196431	0.94608683	-0.011131222	-0.96708645	1.4037402	-0.17704405	-1.0040695	1.392301	0.14904435	-1.0736018	1.4318185	-0.022915487	-1.0258535	1.0611907	-0.21545839	-1.1327027	1.0712112	0.17147886	-0.86130855	0.87837738	-0.21076711	-1.0749602	0.84198396	0.22549602
